<svg width="79" height="25" viewBox="0 0 79 25" fill="none" xmlns="http://www.w3.org/2000/svg">
<rect width="79" height="25" rx="12.5" fill="#0083C6" fill-opacity="0.12"/>
<path d="M41.0309 8.636V9.524H37.3949V12.344H40.3469V13.232H37.3949V17H36.3029V8.636H41.0309ZM42.9138 9.356C42.7058 9.356 42.5298 9.284 42.3858 9.14C42.2418 8.996 42.1698 8.82 42.1698 8.612C42.1698 8.404 42.2418 8.228 42.3858 8.084C42.5298 7.94 42.7058 7.868 42.9138 7.868C43.1138 7.868 43.2818 7.94 43.4178 8.084C43.5618 8.228 43.6338 8.404 43.6338 8.612C43.6338 8.82 43.5618 8.996 43.4178 9.14C43.2818 9.284 43.1138 9.356 42.9138 9.356ZM43.4418 10.424V17H42.3498V10.424H43.4418ZM46.3949 8.12V17H45.3029V8.12H46.3949ZM49.588 11.324V15.2C49.588 15.52 49.656 15.748 49.792 15.884C49.928 16.012 50.164 16.076 50.5 16.076H51.304V17H50.32C49.712 17 49.256 16.86 48.952 16.58C48.648 16.3 48.496 15.84 48.496 15.2V11.324H47.644V10.424H48.496V8.768H49.588V10.424H51.304V11.324H49.588ZM58.6271 13.46C58.6271 13.668 58.6151 13.888 58.5911 14.12H53.3351C53.3751 14.768 53.5951 15.276 53.9951 15.644C54.4031 16.004 54.8951 16.184 55.4711 16.184C55.9431 16.184 56.3351 16.076 56.6471 15.86C56.9671 15.636 57.1911 15.34 57.3191 14.972H58.4951C58.3191 15.604 57.9671 16.12 57.4391 16.52C56.9111 16.912 56.2551 17.108 55.4711 17.108C54.8471 17.108 54.2871 16.968 53.7911 16.688C53.3031 16.408 52.9191 16.012 52.6391 15.5C52.3591 14.98 52.2191 14.38 52.2191 13.7C52.2191 13.02 52.3551 12.424 52.6271 11.912C52.8991 11.4 53.2791 11.008 53.7671 10.736C54.2631 10.456 54.8311 10.316 55.4711 10.316C56.0951 10.316 56.6471 10.452 57.1271 10.724C57.6071 10.996 57.9751 11.372 58.2311 11.852C58.4951 12.324 58.6271 12.86 58.6271 13.46ZM57.4991 13.232C57.4991 12.816 57.4071 12.46 57.2231 12.164C57.0391 11.86 56.7871 11.632 56.4671 11.48C56.1551 11.32 55.8071 11.24 55.4231 11.24C54.8711 11.24 54.3991 11.416 54.0071 11.768C53.6231 12.12 53.4031 12.608 53.3471 13.232H57.4991ZM61.1605 11.492C61.3525 11.116 61.6245 10.824 61.9765 10.616C62.3365 10.408 62.7725 10.304 63.2845 10.304V11.432H62.9965C61.7725 11.432 61.1605 12.096 61.1605 13.424V17H60.0685V10.424H61.1605V11.492Z" fill="#0083C6"/>
<path d="M24.5556 18.8333V13.5833L29.0162 9.1111C29.0825 9.0448 29.1348 8.96593 29.1702 8.87912C29.2056 8.7923 29.2233 8.69929 29.2223 8.60554V7.94443C29.2223 7.84129 29.1813 7.74238 29.1084 7.66944C29.0354 7.59651 28.9365 7.55554 28.8334 7.55554H17.1667C17.0636 7.55554 16.9647 7.59651 16.8917 7.66944C16.8188 7.74238 16.7778 7.84129 16.7778 7.94443V8.59388C16.7779 8.68573 16.7962 8.77665 16.8315 8.86142C16.8669 8.94618 16.9187 9.02311 16.9839 9.08776L21.4445 13.6144V17.5811L24.5556 18.8333Z" fill="#0083C6"/>
</svg>
